<svg xmlns="http://www.w3.org/2000/svg" viewBox="0 0 2264.55 1951.5"><defs><style>.cls-1{fill:#352b97;}.cls-2{fill:#d35149;}</style></defs><g id="Layer_2" data-name="Layer 2"><g id="Layer_1-2" data-name="Layer 1"><path class="cls-1" d="M1842.59,888.25a175,175,0,0,0-141.88-74.31h-1.35c-96.68,0-175.31,78.68-175.31,175.36a174.35,174.35,0,0,0,110.62,163c-103.51,202.37-314.21,341.23-556.72,341.23-344.58,0-624.95-280.32-624.95-624.9,0-336.86,268-612.39,601.93-624.52a213.71,213.71,0,0,0,3.67,31.34c12,61.94,48.64,114.91,103.19,149.08,42.69,26.79,94.17,40.79,146,40.74,9.07,0,18.18-.42,27.25-1.3a54.85,54.85,0,1,0-15.21-45.48c-47.2,2.42-94.68-9.12-133.32-33.34-30.83-19.3-70.08-55.53-82.31-118.54a165,165,0,0,1-2.74-22.46,177.91,177.91,0,0,1,5.86-55.62,195.37,195.37,0,0,1,28-60.82c28.32-41.25,70.73-69.52,116.44-77.66a242.82,242.82,0,0,1,68.64-2,53.63,53.63,0,0,0-1.07,10.7,54.85,54.85,0,1,0,54.83-54.83,53.85,53.85,0,0,0-17.63,2.93c-37.8-8-76.73-9-112.9-2.56-57.85,10.28-111.33,45.67-146.63,97.05a240.54,240.54,0,0,0-37.29,86.78c-367,9.72-662.52,311.24-662.52,680.51,0,375.32,305.38,680.7,680.75,680.7,269.43,0,502.74-157.27,613-384.9.33,0,.65,0,1,0,2.46.14,4.93.19,7.44.19,96.68,0,175.36-78.64,175.36-175.32A175.23,175.23,0,0,0,1842.59,888.25ZM1805,998a10.7,10.7,0,0,0-.1,1.25c-.28,2.7-.65,5.4-1.07,8-.09.56-.18,1.07-.28,1.58-.51,2.61-1.07,5.21-1.76,7.72-.1.47-.24.93-.37,1.4-.75,2.51-1.49,5.07-2.42,7.53a5.05,5.05,0,0,1-.24.61c-.88,2.37-1.86,4.74-2.92,7.06-.24.47-.42,1-.66,1.45-1.07,2.23-2.23,4.46-3.44,6.6l-1,1.67c-1.21,2.1-2.51,4.19-3.91,6.19-.33.51-.7,1-1,1.44-1.4,2-2.84,3.91-4.37,5.77-.24.32-.52.65-.79,1-1.54,1.82-3.12,3.54-4.75,5.26-.42.42-.79.83-1.21,1.25-1.72,1.77-3.48,3.4-5.3,5-.51.42-1,.84-1.49,1.31-1.86,1.58-3.76,3.07-5.72,4.51-.46.37-.93.7-1.39,1-2,1.44-4.09,2.84-6.23,4.14a4.7,4.7,0,0,0-.75.46c-2.14,1.26-4.37,2.47-6.6,3.58-.42.24-.88.47-1.3.7-2.28,1.12-4.65,2.14-7,3.12-.52.18-1,.42-1.54.6-2.42.93-4.88,1.77-7.35,2.56-.41.09-.88.23-1.3.33-2.65.79-5.35,1.48-8,2-.47.09-.93.14-1.35.23a108.3,108.3,0,0,1-20,1.91c-2.93,0-5.81-.14-8.7-.37a10.62,10.62,0,0,0-1.3-.09c-2.7-.28-5.35-.66-8-1.12-.51,0-1.07-.19-1.58-.28-2.65-.46-5.25-1.07-7.81-1.77l-1.12-.28c-2.74-.79-5.44-1.62-8-2.6-2.37-.88-4.65-1.81-6.93-2.84a10.79,10.79,0,0,1-1-.46c-2.18-1-4.37-2.09-6.51-3.3a4.07,4.07,0,0,1-.65-.37c-1.91-1.07-3.77-2.19-5.63-3.35-.37-.28-.79-.51-1.2-.79-1.91-1.26-3.77-2.56-5.58-4-.42-.32-.84-.69-1.26-1-1.53-1.21-3-2.42-4.51-3.72l-1.12-1c-1.62-1.48-3.25-3-4.79-4.6-.46-.46-.93-1-1.35-1.44-1.39-1.44-2.69-2.93-4-4.42l-.7-.84c-1.4-1.72-2.75-3.48-4-5.3-.42-.56-.83-1.11-1.21-1.67-1.25-1.81-2.51-3.68-3.67-5.58-.19-.33-.37-.7-.56-1-1-1.73-2-3.45-2.93-5.21-.28-.56-.56-1.17-.84-1.72-1-2-1.95-4-2.83-6.19-.19-.46-.37-.93-.56-1.39-.74-1.82-1.44-3.72-2-5.63-.18-.47-.37-1-.51-1.49-.7-2.18-1.35-4.46-1.9-6.74-.14-.51-.24-1.07-.38-1.58-.51-2.09-.93-4.23-1.25-6.37a8.47,8.47,0,0,1-.19-1c-.37-2.37-.65-4.79-.88-7.25,0-.56-.09-1.12-.14-1.72-.14-2.47-.28-5-.28-7.54a106.12,106.12,0,0,1,106-106c1.12,0,2.23,0,3.35.09a102.93,102.93,0,0,1,14.78,1.49c.14,0,.33,0,.47.09a110.1,110.1,0,0,1,14,3.44.7.7,0,0,0,.23.09c2.14.7,4.28,1.49,6.33,2.33.18.05.37.14.6.23a113.37,113.37,0,0,1,12.6,6.09c.1,0,.19.14.28.19,2,1.16,4,2.37,6,3.67a110,110,0,0,1,10,7.58c.19.14.33.28.47.38,1.39,1.21,2.79,2.46,4.09,3.76a6.58,6.58,0,0,1,.6.56,117,117,0,0,1,8.42,9.12c0,.09.14.23.18.32,1.17,1.44,2.33,2.88,3.4,4.42.28.37.51.74.79,1.11.93,1.26,1.81,2.61,2.65,3.91l.79,1.21c1,1.58,1.91,3.21,2.84,4.84a1.82,1.82,0,0,1,.18.32q1.47,2.65,2.79,5.44c.14.37.33.75.47,1.07.7,1.49,1.3,2.93,1.91,4.42.23.56.46,1.12.65,1.67.55,1.35,1.07,2.75,1.53,4.14l.56,1.63c.56,1.77,1.07,3.58,1.58,5.39a1.58,1.58,0,0,0,.09.42c.51,2,1,4,1.35,6,.14.55.23,1.11.33,1.67.23,1.44.51,2.93.7,4.37l.27,2.09.42,4.33c0,.65.1,1.3.14,1.9.09,2.1.19,4.19.19,6.28C1805.34,992.23,1805.2,995.12,1805,998Z" transform="translate(-18.41)"/><circle class="cls-2" cx="1699.37" cy="989.29" r="62.96" transform="translate(116.65 2180.72) rotate(-67.5)"/><path class="cls-1" d="M1231.82,1328.77c86.78-19.72,55.2-378.62,67.06-461.49,5.77-40.32,31.11-70.82,48.5-106.35,13.3-27.3,23.53-60.41,26.28-90.63,9.06-101.24-100.87-117.56-179.08-110.73-5.82.52-91,18.84-91,19.81,0,0,6,9.86,57.2,37.44-96.64-19.72-274.14-106.49-370.77-45.34s-47.34,159.73-9.86,211S805.82,893,813.72,1060.59s98.63,248.46,98.63,248.46C936,1313,934,1206.51,934,1162.29s2-149,110.45-156.94,110.44,166.38,110.44,166.38S1145.05,1348.49,1231.82,1328.77Zm73.66-730.65a89.2,89.2,0,0,1,22,20.28,76.31,76.31,0,0,1,13.25,27.81,84.48,84.48,0,0,1,1.35,30.5,99.68,99.68,0,0,1-3.26,14.56c-1.21,4.79-3.25,9.25-5.07,13.76a144.32,144.32,0,0,1-33,45.9c7.21-17.3,14.75-33.9,19.26-50.87a139.52,139.52,0,0,0,4.51-25.21,82.33,82.33,0,0,0-1.91-24.22c-3.58-15.63-13.16-29.44-26-40.88s-28.37-20.93-45.11-29.25C1270.37,581.34,1289,587.57,1305.48,598.12ZM992.66,613.89c-17.16-2.14-34.18-5-51.29-7.44-17.21-2.88-33.57-5.44-50.41-6.7a222.64,222.64,0,0,0-49.48.79c-16.18,1.91-31.57,7.16-44.41,16.05S775.31,639.37,771,655.23a103.75,103.75,0,0,0-3.82,24.69,136.85,136.85,0,0,0,1.21,25.67,102.85,102.85,0,0,1-6.32-25.44,101.37,101.37,0,0,1,0-26.73,83,83,0,0,1,8.33-26.28,71.23,71.23,0,0,1,17.72-21.9,84.41,84.41,0,0,1,24-14.46c4.28-1.91,8.74-3.07,13.11-4.56,4.46-1,8.93-2.33,13.39-3,18-3.07,36-3.17,53.71-2a511.14,511.14,0,0,1,52,7.86c16.88,3.53,33.81,6.69,50.64,10.51,33.67,7.34,67.29,15.34,100.73,25.15C1061.21,622.58,1026.89,618.54,992.66,613.89Z" transform="translate(-18.41)"/><path class="cls-1" d="M18.41,1800.31,36.21,1652h66q13.14,0,22.59,3.51a36.67,36.67,0,0,1,15.35,10.31,40.2,40.2,0,0,1,8.64,15.62,49,49,0,0,1,1.32,19.8A54.56,54.56,0,0,1,141,1726a51.33,51.33,0,0,1-19.25,16.84q-11.86,6.08-27.24,6.08H59l-6.16,51.37ZM62.26,1722h28.9q10.8,0,17.17-5.64t7.5-15.08q1.17-9.73-3.94-15t-15.61-5.31H67.19Z" transform="translate(-18.41)"/><path class="cls-1" d="M130.6,1800.31,201.82,1652h35.32L273,1800.31H237.05L231.11,1772H177.3l-12.54,28.31Zm57.6-52.64h38L220.61,1720q-2.09-10.21-3.1-19.22t-1.7-20.29h-.48q-2.73,8.09-4.88,14.31t-4.77,13q-2.61,6.76-5,12.21Z" transform="translate(-18.41)"/><path class="cls-1" d="M342.66,1803.23q-19.85,0-33.73-5.88t-20.69-17q-6.8-11.1-5.39-26.86h34.26q0,7.79,3.23,12.8a18.62,18.62,0,0,0,9.62,7.39,46.21,46.21,0,0,0,16,2.38,44.74,44.74,0,0,0,12.62-1.75,25.45,25.45,0,0,0,10.08-5.4,14.51,14.51,0,0,0,4.79-9.48q.78-6.53-2.82-10.12t-10.92-5.89q-7.32-2.28-17.83-4.72t-19.68-5.45a59,59,0,0,1-15.81-7.73,28.19,28.19,0,0,1-9.81-12.31q-3.17-7.59-1.78-19.17,1.85-15.37,10.66-25.2a53.06,53.06,0,0,1,22.48-14.6,90.41,90.41,0,0,1,30-4.77,81.12,81.12,0,0,1,22.19,2.83,48.38,48.38,0,0,1,17,8.36,34.71,34.71,0,0,1,10.55,13.82,42.88,42.88,0,0,1,3,19.17H377.32q-.22-8.65-6.32-13.48t-17.18-4.81q-10.41,0-17.37,4.13t-7.82,11.24q-.69,5.74,3.1,9t11.56,5.45q7.75,2.19,19.12,4.82a161.74,161.74,0,0,1,18.57,5.4,57.31,57.31,0,0,1,15.42,8.17,30.27,30.27,0,0,1,9.83,12.89q3.24,7.89,1.84,19.56a46.57,46.57,0,0,1-11,25.64,57.86,57.86,0,0,1-23.33,16A85.33,85.33,0,0,1,342.66,1803.23Z" transform="translate(-18.41)"/><path class="cls-1" d="M482.1,1803.23q-19.85,0-33.74-5.88t-20.68-17q-6.8-11.1-5.39-26.86h34.25q0,7.79,3.23,12.8a18.66,18.66,0,0,0,9.62,7.39,46.31,46.31,0,0,0,16,2.38,44.67,44.67,0,0,0,12.61-1.75,25.56,25.56,0,0,0,10.09-5.4,14.6,14.6,0,0,0,4.79-9.48q.78-6.53-2.83-10.12t-10.92-5.89q-7.31-2.28-17.82-4.72t-19.68-5.45a58.81,58.81,0,0,1-15.81-7.73,28.12,28.12,0,0,1-9.81-12.31q-3.18-7.59-1.79-19.17,1.85-15.37,10.66-25.2a53.06,53.06,0,0,1,22.48-14.6,90.51,90.51,0,0,1,30-4.77,81,81,0,0,1,22.18,2.83,48.38,48.38,0,0,1,17,8.36A34.82,34.82,0,0,1,547,1674.5a43.16,43.16,0,0,1,3,19.17H516.75q-.22-8.65-6.31-13.48t-17.18-4.81q-10.41,0-17.38,4.13t-7.82,11.24q-.69,5.74,3.1,9t11.56,5.45q7.77,2.19,19.13,4.82a162.33,162.33,0,0,1,18.57,5.4,57.4,57.4,0,0,1,15.41,8.17,30.37,30.37,0,0,1,9.84,12.89q3.24,7.89,1.84,19.56a46.64,46.64,0,0,1-11,25.64,57.89,57.89,0,0,1-23.34,16A85.24,85.24,0,0,1,482.1,1803.23Z" transform="translate(-18.41)"/><path class="cls-1" d="M592.3,1800.31,599,1745,559.31,1652h37.26l12.13,31.14q1.93,5,3.83,11t3.43,11.58q1.53,5.51,3.3,12.6h.39q3.57-7.1,6.47-12.6t6.31-11.58q3.41-6.08,6.63-11L659,1652h35.8l-61.89,92.54-6.69,55.75Z" transform="translate(-18.41)"/><path class="cls-1" d="M740.21,1800.31,758,1652h61.79q15.66,0,27.58,5.31a51,51,0,0,1,19.72,15.23A58.47,58.47,0,0,1,878,1696.3q3.11,13.82,1.07,30.84a99.81,99.81,0,0,1-8.18,30,74.4,74.4,0,0,1-16.29,23.11,70.28,70.28,0,0,1-23.82,14.84,86.11,86.11,0,0,1-30.74,5.2Zm37.5-28.7h23.15q12.85,0,22-5.21a37.47,37.47,0,0,0,14.52-15.18q5.37-10,7.07-24.08t-1.3-24.42q-3-10.41-10.66-16.2t-20.13-5.79H788.61Z" transform="translate(-18.41)"/><path class="cls-1" d="M888.88,1800.31,906.68,1652h111.21l-3.39,28.32H937.14l-3.54,29.48h66.95l-3.24,27H930.37l-4.13,34.45H1005l-3.49,29.09Z" transform="translate(-18.41)"/><path class="cls-1" d="M1022.38,1800.31l17.8-148.29h34.64l31.38,64.42q2.74,5.55,5.49,12.21t5,12.8q2.28,6.12,5.13,14h.39q.45-8.67.92-15.38t1.07-14.2q.6-7.5,1.36-13.82l7.21-60h32.5l-17.8,148.29h-34.83l-31.1-63.54q-2.64-5.64-5.42-12.45t-5.1-13q-2.31-6.22-5.15-14.2h-.49q-.45,8.65-.93,15.47t-1.09,14.35q-.62,7.55-1.37,13.86l-7.15,59.55Z" transform="translate(-18.41)"/><path class="cls-1" d="M1209.3,1800.31l14.33-119.39h-44.08L1183,1652h122.4l-3.46,28.9h-44.28l-14.32,119.39Z" transform="translate(-18.41)"/><path class="cls-1" d="M1277,1800.31,1348.24,1652h35.32l35.82,148.29h-35.91l-5.94-28.31h-53.81l-12.54,28.31Zm57.6-52.64h38L1367,1720q-2.08-10.21-3.1-19.22t-1.7-20.29h-.48q-2.73,8.09-4.88,14.31t-4.77,13q-2.61,6.76-5,12.21Z" transform="translate(-18.41)"/><path class="cls-1" d="M1434.26,1800.31l17.8-148.29h33.86l-14.3,119.2H1540l-3.49,29.09Z" transform="translate(-18.41)"/><path class="cls-1" d="M1668.9,1803.23q-16.15,0-28.84-5.74a56.75,56.75,0,0,1-21.08-16.1,62.77,62.77,0,0,1-12-24.38,82.39,82.39,0,0,1-1.6-30.45,95.45,95.45,0,0,1,8.77-30.55,86.11,86.11,0,0,1,17.58-24.48,78,78,0,0,1,24.87-16.25,85.18,85.18,0,0,1,53-2.87,48.42,48.42,0,0,1,17,8.57,46.28,46.28,0,0,1,13.66,18,55.41,55.41,0,0,1,4.28,23.11h-33.86a25.28,25.28,0,0,0-3.36-12.51,22.85,22.85,0,0,0-9.23-8.66,30.5,30.5,0,0,0-14.36-3.16q-12.66,0-21.84,6.42a45.9,45.9,0,0,0-14.7,17.47,75.9,75.9,0,0,0-7.18,25q-1.68,14,1.63,25t11.11,17.27q7.82,6.32,19.48,6.32a34.89,34.89,0,0,0,16.1-3.6,33.51,33.51,0,0,0,11.68-9.73,35.28,35.28,0,0,0,6.32-13.72h34.15a64.15,64.15,0,0,1-8.06,21,72.26,72.26,0,0,1-14.56,17.47,64.11,64.11,0,0,1-21.34,12.45A82.48,82.48,0,0,1,1668.9,1803.23Z" transform="translate(-18.41)"/><path class="cls-1" d="M1752,1800.31,1769.75,1652h33.86l-14.3,119.2h68.4l-3.49,29.09Z" transform="translate(-18.41)"/><path class="cls-1" d="M1872.32,1800.31l17.8-148.29h34.05l-17.79,148.29Z" transform="translate(-18.41)"/><path class="cls-1" d="M1931.67,1800.31l17.8-148.29h34.64l31.39,64.42q2.73,5.55,5.49,12.21t5,12.8q2.28,6.12,5.13,14h.39q.45-8.67.92-15.38t1.07-14.2q.62-7.5,1.37-13.82l7.2-60h32.5l-17.79,148.29H2022l-31.1-63.54q-2.62-5.64-5.41-12.45t-5.1-13q-2.33-6.22-5.16-14.2h-.49q-.45,8.65-.93,15.47t-1.09,14.35q-.62,7.55-1.37,13.86l-7.15,59.55Z" transform="translate(-18.41)"/><path class="cls-1" d="M2081.72,1800.31,2099.51,1652h34.06l-17.8,148.29Z" transform="translate(-18.41)"/><path class="cls-1" d="M2207.27,1803.23q-16.16,0-28.84-5.74a56.75,56.75,0,0,1-21.08-16.1,62.91,62.91,0,0,1-12-24.38,82.6,82.6,0,0,1-1.6-30.45,95.7,95.7,0,0,1,8.77-30.55,86,86,0,0,1,17.59-24.48,78.06,78.06,0,0,1,24.86-16.25,85.18,85.18,0,0,1,53-2.87,48.56,48.56,0,0,1,17,8.57,46.16,46.16,0,0,1,13.65,18A55.26,55.26,0,0,1,2283,1702h-33.87a25.17,25.17,0,0,0-3.36-12.51,22.79,22.79,0,0,0-9.23-8.66,30.48,30.48,0,0,0-14.36-3.16q-12.64,0-21.83,6.42a45.73,45.73,0,0,0-14.7,17.47,75.66,75.66,0,0,0-7.18,25q-1.68,14,1.63,25a34.34,34.34,0,0,0,11.11,17.27q7.8,6.32,19.48,6.32a34.92,34.92,0,0,0,16.1-3.6,33.48,33.48,0,0,0,11.67-9.73,35.14,35.14,0,0,0,6.32-13.72h34.15a63.92,63.92,0,0,1-8.06,21,72.45,72.45,0,0,1-14.55,17.47,64.21,64.21,0,0,1-21.34,12.45A82.59,82.59,0,0,1,2207.27,1803.23Z" transform="translate(-18.41)"/><path class="cls-1" d="M356.61,1935.8v-29.4l-25.7-42.86h12.95l11.62,20c.79,1.39,1.59,2.91,2.42,4.57s1.58,3.24,2.29,4.74,1.51,3.24,2.4,5.2h.19q1.32-2.94,2.42-5.2t2.37-4.74q1.28-2.49,2.46-4.57l11.72-20h12.42l-25.89,43.15v29.11Z" transform="translate(-18.41)"/><path class="cls-1" d="M429.64,1937.23a37.43,37.43,0,0,1-14.77-2.8,31.83,31.83,0,0,1-11.19-7.87,35,35,0,0,1-7.07-11.91,47,47,0,0,1,0-29.89,34.73,34.73,0,0,1,7.07-11.91,32,32,0,0,1,11.16-7.84,40.25,40.25,0,0,1,29.5,0,32.25,32.25,0,0,1,11.19,7.84,34.66,34.66,0,0,1,7.11,11.91,46.45,46.45,0,0,1,0,29.89,35,35,0,0,1-7.11,11.91,32.19,32.19,0,0,1-11.19,7.87A37.12,37.12,0,0,1,429.64,1937.23Zm.05-10.06a23.6,23.6,0,0,0,10.12-2.06,20.11,20.11,0,0,0,7.33-5.79,25.82,25.82,0,0,0,4.43-8.72,37.75,37.75,0,0,0,1.49-10.88,38.46,38.46,0,0,0-1.49-11,26.13,26.13,0,0,0-4.43-8.8,20.32,20.32,0,0,0-7.33-5.83,25.74,25.74,0,0,0-20.32,0,20.73,20.73,0,0,0-7.4,5.83,25.89,25.89,0,0,0-4.5,8.8,40,40,0,0,0,0,21.84,25.6,25.6,0,0,0,4.5,8.74,20.52,20.52,0,0,0,7.4,5.79A23.91,23.91,0,0,0,429.69,1927.17Z" transform="translate(-18.41)"/><path class="cls-1" d="M503.85,1937.08a38.2,38.2,0,0,1-14.91-2.68,21.09,21.09,0,0,1-9.94-8.27q-3.56-5.6-3.56-14.27v-48.32h11.62v47.79a18.33,18.33,0,0,0,2,9,12,12,0,0,0,5.74,5.24,22.26,22.26,0,0,0,9.22,1.71,21.3,21.3,0,0,0,9-1.73,12,12,0,0,0,5.64-5.29,18.82,18.82,0,0,0,1.92-9v-47.7h11.71v48.32q0,8.67-3.6,14.24a21.56,21.56,0,0,1-10,8.28A37.78,37.78,0,0,1,503.85,1937.08Z" transform="translate(-18.41)"/><path class="cls-1" d="M545.39,1935.8v-72.26h34A26.42,26.42,0,0,1,591,1866a18.91,18.91,0,0,1,7.89,7,19.54,19.54,0,0,1,2.85,10.64,19.77,19.77,0,0,1-3,11.15q-3,4.59-10.19,6.82v.29a16.21,16.21,0,0,1,6.28,3.15,12.05,12.05,0,0,1,3.41,5.29,33.35,33.35,0,0,1,1.5,8.2q.33,3.75.64,6.66c.2,2,.43,3.63.66,5a18.53,18.53,0,0,0,.83,3.37,3.05,3.05,0,0,0,1.14,1.61v.57H590.91a4.24,4.24,0,0,1-1.28-2.46,33.82,33.82,0,0,1-.67-5.17q-.23-3.37-.71-8.68-.46-7.07-3.77-10.1t-10.07-3H557.05v29.45Zm11.66-38.55h19.11q6.83,0,10.29-3.22a11.29,11.29,0,0,0,3.46-8.68q0-5.88-3.1-9t-10.17-3.08H557.05Z" transform="translate(-18.41)"/><path class="cls-1" d="M666,1937.18q-10,0-16.83-3.2a24.5,24.5,0,0,1-10.46-8.78,25.31,25.31,0,0,1-4-12.68h11.62a18.06,18.06,0,0,0,3,8.44,14.57,14.57,0,0,0,6.64,5.14,27.06,27.06,0,0,0,10.27,1.74,23.34,23.34,0,0,0,7.92-1.26,12,12,0,0,0,5.55-3.87,10.26,10.26,0,0,0,2-6.54,9,9,0,0,0-2.45-6.73,16.75,16.75,0,0,0-6.92-3.82q-4.49-1.39-10.6-2.77a94.72,94.72,0,0,1-9.27-2.47,31.22,31.22,0,0,1-7.73-3.65,16.09,16.09,0,0,1-5.26-5.74,18.22,18.22,0,0,1-1.92-8.82,17.6,17.6,0,0,1,3.32-10.88,20.4,20.4,0,0,1,9.13-6.73,36,36,0,0,1,13.39-2.3,39.41,39.41,0,0,1,11.43,1.49,23.55,23.55,0,0,1,8.35,4.34,21.32,21.32,0,0,1,5.38,6.73,26.62,26.62,0,0,1,2.58,8.73H679.77a13.2,13.2,0,0,0-5.1-9.11q-4.24-3.17-11.31-3.17-6.54,0-10.55,2.63a8.46,8.46,0,0,0-4,7.51,7.34,7.34,0,0,0,2.32,5.72,16.74,16.74,0,0,0,6.47,3.36q4.15,1.26,9.65,2.45,5.18,1.08,9.87,2.53a34,34,0,0,1,8.39,3.84,17.35,17.35,0,0,1,5.83,6.29,20.36,20.36,0,0,1,2.14,9.86,19.48,19.48,0,0,1-3.56,11.83,21.94,21.94,0,0,1-9.77,7.37A37.32,37.32,0,0,1,666,1937.18Z" transform="translate(-18.41)"/><path class="cls-1" d="M704.71,1935.8v-72.26H720l13.42,36.84c.76,2.06,1.53,4.41,2.32,7.07s1.53,5.23,2.21,7.73,1.44,5.37,2.3,8.63h.23c.86-3.23,1.63-6.1,2.33-8.61s1.44-5.1,2.23-7.75,1.54-5,2.27-7.07l13.18-36.84h15.7v72.26H765.17v-40.68q0-2.71.12-6.19t.26-6.78q.15-3.3.33-7.56h-.19q-.95,3.89-1.73,6.85t-1.68,6.09q-.9,3.13-1.76,5.55l-15.64,42.72h-9.34l-15.61-42.72c-.56-1.61-1.15-3.46-1.75-5.55s-1.17-4.12-1.71-6.09-1.14-4.26-1.8-6.85h-.19q.24,4.26.38,7.56c.1,2.2.17,4.46.24,6.78s.09,4.38.09,6.19v40.68Z" transform="translate(-18.41)"/><path class="cls-1" d="M790.49,1935.8v-72.26h11.72v72.26Z" transform="translate(-18.41)"/><path class="cls-1" d="M816.57,1935.8v-72.26h11.67v61.88h36.32v10.38Z" transform="translate(-18.41)"/><path class="cls-1" d="M874.61,1935.8v-72.26h52.12v10.1H886.28v19.87h36.18V1903H886.28v22.38h41.44v10.38Z" transform="translate(-18.41)"/><path class="cls-1" d="M939.29,1951.5V1946a7.73,7.73,0,0,0,4-2.85q1.54-2.09,1.54-6.59v-.76H939.2v-12h12v12.47a20.06,20.06,0,0,1-1.42,8,11.35,11.35,0,0,1-4.08,5A14.21,14.21,0,0,1,939.29,1951.5Z" transform="translate(-18.41)"/><path class="cls-1" d="M1008.67,1935.8v-29.4L983,1863.54h12.95l11.62,20c.79,1.39,1.59,2.91,2.42,4.57s1.58,3.24,2.3,4.74,1.5,3.24,2.39,5.2h.19q1.32-2.94,2.42-5.2c.72-1.5,1.52-3.08,2.37-4.74s1.67-3.18,2.46-4.57l11.72-20h12.42l-25.89,43.15v29.11Z" transform="translate(-18.41)"/><path class="cls-1" d="M1081.69,1937.23a37.43,37.43,0,0,1-14.77-2.8,31.83,31.83,0,0,1-11.19-7.87,35,35,0,0,1-7.07-11.91,47,47,0,0,1,0-29.89,34.73,34.73,0,0,1,7.07-11.91,32,32,0,0,1,11.16-7.84,40.25,40.25,0,0,1,29.5,0,32.25,32.25,0,0,1,11.19,7.84,34.66,34.66,0,0,1,7.11,11.91,46.45,46.45,0,0,1,0,29.89,35,35,0,0,1-7.11,11.91,32.19,32.19,0,0,1-11.19,7.87A37.12,37.12,0,0,1,1081.69,1937.23Zm0-10.06a23.6,23.6,0,0,0,10.12-2.06,20.11,20.11,0,0,0,7.33-5.79,25.82,25.82,0,0,0,4.43-8.72,37.75,37.75,0,0,0,1.49-10.88,38.46,38.46,0,0,0-1.49-11,26.13,26.13,0,0,0-4.43-8.8,20.32,20.32,0,0,0-7.33-5.83,25.74,25.74,0,0,0-20.32,0,20.73,20.73,0,0,0-7.4,5.83,25.89,25.89,0,0,0-4.5,8.8,40,40,0,0,0,0,21.84,25.6,25.6,0,0,0,4.5,8.74,20.52,20.52,0,0,0,7.4,5.79A23.91,23.91,0,0,0,1081.74,1927.17Z" transform="translate(-18.41)"/><path class="cls-1" d="M1155.9,1937.08a38.2,38.2,0,0,1-14.91-2.68,21.09,21.09,0,0,1-9.94-8.27q-3.55-5.6-3.55-14.27v-48.32h11.61v47.79a18.33,18.33,0,0,0,2,9,12.09,12.09,0,0,0,5.74,5.24,22.26,22.26,0,0,0,9.22,1.71,21.3,21.3,0,0,0,9-1.73,12,12,0,0,0,5.64-5.29,18.82,18.82,0,0,0,1.92-9v-47.7h11.71v48.32q0,8.67-3.6,14.24a21.56,21.56,0,0,1-10,8.28A37.78,37.78,0,0,1,1155.9,1937.08Z" transform="translate(-18.41)"/><path class="cls-1" d="M1197.44,1935.8v-72.26h34a26.42,26.42,0,0,1,11.69,2.46,18.91,18.91,0,0,1,7.89,7,19.54,19.54,0,0,1,2.85,10.64,19.77,19.77,0,0,1-3,11.15q-3,4.59-10.19,6.82v.29a16.21,16.21,0,0,1,6.28,3.15,12.16,12.16,0,0,1,3.42,5.29,33.87,33.87,0,0,1,1.49,8.2q.33,3.75.64,6.66c.2,2,.43,3.63.66,5a18.53,18.53,0,0,0,.83,3.37,3.05,3.05,0,0,0,1.14,1.61v.57H1243a4.24,4.24,0,0,1-1.28-2.46,32.81,32.81,0,0,1-.66-5.17q-.24-3.37-.72-8.68-.46-7.07-3.77-10.1t-10.07-3H1209.1v29.45Zm11.66-38.55h19.11q6.82,0,10.29-3.22a11.29,11.29,0,0,0,3.46-8.68q0-5.88-3.1-9t-10.17-3.08H1209.1Z" transform="translate(-18.41)"/><path class="cls-1" d="M1322.62,1937.23a34.75,34.75,0,0,1-14.1-2.78,31.16,31.16,0,0,1-10.86-7.82,35.31,35.31,0,0,1-7-11.93,47.21,47.21,0,0,1-.08-29.78,35.48,35.48,0,0,1,6.88-11.92,31.35,31.35,0,0,1,10.91-8,35.2,35.2,0,0,1,14.41-2.84,36.63,36.63,0,0,1,11.34,1.64,27.58,27.58,0,0,1,8.72,4.52,25.06,25.06,0,0,1,6.57,7.8,28.67,28.67,0,0,1,3.15,9.89H1341a16.83,16.83,0,0,0-3.1-7.23,16.14,16.14,0,0,0-6.19-4.89,21.36,21.36,0,0,0-9-1.77,20.66,20.66,0,0,0-12.31,3.6,22.2,22.2,0,0,0-7.63,9.84,36.62,36.62,0,0,0-2.58,14.11,34.58,34.58,0,0,0,2.79,14.34,22.73,22.73,0,0,0,7.9,9.67,20.56,20.56,0,0,0,11.92,3.49,19.39,19.39,0,0,0,10.06-2.4,16.78,16.78,0,0,0,6.23-6.37,21.82,21.82,0,0,0,2.63-8.73h11.67a28.36,28.36,0,0,1-2.42,10.6,27.92,27.92,0,0,1-6.26,9.08,24.69,24.69,0,0,1-9.55,5.93A38.52,38.52,0,0,1,1322.62,1937.23Z" transform="translate(-18.41)"/><path class="cls-1" d="M1396.93,1937.23a37.4,37.4,0,0,1-14.77-2.8,32,32,0,0,1-11.2-7.87,35,35,0,0,1-7.06-11.91,47,47,0,0,1,0-29.89,34.71,34.71,0,0,1,7.06-11.91,32.08,32.08,0,0,1,11.17-7.84,40.25,40.25,0,0,1,29.5,0,32.25,32.25,0,0,1,11.19,7.84,34.66,34.66,0,0,1,7.11,11.91,46.45,46.45,0,0,1,0,29.89,35,35,0,0,1-7.11,11.91,32.19,32.19,0,0,1-11.19,7.87A37.19,37.19,0,0,1,1396.93,1937.23Zm0-10.06a23.65,23.65,0,0,0,10.13-2.06,20.08,20.08,0,0,0,7.32-5.79,25.84,25.84,0,0,0,4.44-8.72,38.1,38.1,0,0,0,1.49-10.88,38.81,38.81,0,0,0-1.49-11,26.15,26.15,0,0,0-4.44-8.8,20.29,20.29,0,0,0-7.32-5.83,25.74,25.74,0,0,0-20.32,0,20.65,20.65,0,0,0-7.4,5.83,25.89,25.89,0,0,0-4.5,8.8,40,40,0,0,0,0,21.84,25.6,25.6,0,0,0,4.5,8.74,20.43,20.43,0,0,0,7.4,5.79A23.89,23.89,0,0,0,1397,1927.17Z" transform="translate(-18.41)"/><path class="cls-1" d="M1443.78,1935.8v-72.26h12.14l26.79,41.58c.94,1.46,1.91,3.08,2.89,4.86s1.9,3.5,2.75,5.12,1.82,3.51,2.89,5.62h.29q-.24-3.36-.36-6c-.08-1.76-.17-3.61-.26-5.55s-.14-3.74-.14-5.39v-40.25h11.09v72.26h-12.09l-26.69-41.44q-1.42-2.23-2.94-4.93t-2.83-5.15l-3-5.57h-.19q.24,3.38.33,6c.07,1.73.14,3.58.22,5.52s.11,3.72.11,5.33v40.26Z" transform="translate(-18.41)"/><path class="cls-1" d="M1516,1935.8v-72.26h50.36v10.19h-38.69v20.06H1560v9.77h-32.29v32.24Z" transform="translate(-18.41)"/><path class="cls-1" d="M1577.07,1935.8v-72.26h11.71v72.26Z" transform="translate(-18.41)"/><path class="cls-1" d="M1603.2,1935.8v-72.26h27.59a35.42,35.42,0,0,1,14.09,2.61,27.12,27.12,0,0,1,10.17,7.44,32.53,32.53,0,0,1,6.19,11.55,49.88,49.88,0,0,1,2.08,14.86,47.61,47.61,0,0,1-2.13,14.7,30.93,30.93,0,0,1-6.33,11.29,28.13,28.13,0,0,1-10.41,7.25,37.42,37.42,0,0,1-14.37,2.56Zm11.76-10h14.46q7.68,0,12.49-3.13a18.26,18.26,0,0,0,7.09-8.91,37.35,37.35,0,0,0,2.28-13.71,41,41,0,0,0-2.13-13.85,18.6,18.6,0,0,0-6.86-9.22q-4.71-3.29-12.35-3.29h-15Z" transform="translate(-18.41)"/><path class="cls-1" d="M1674.66,1935.8v-72.26h52.11v10.1h-40.45v19.87h36.18V1903h-36.18v22.38h41.44v10.38Z" transform="translate(-18.41)"/><path class="cls-1" d="M1739.43,1935.8v-72.26h12.14l26.79,41.58q1.42,2.19,2.89,4.86t2.75,5.12c.86,1.63,1.82,3.51,2.9,5.62h.28q-.24-3.36-.36-6c-.07-1.76-.16-3.61-.26-5.55s-.14-3.74-.14-5.39v-40.25h11.1v72.26h-12.09l-26.7-41.44q-1.43-2.23-2.94-4.93t-2.82-5.15l-3-5.57h-.19q.24,3.38.34,6c.06,1.73.13,3.58.21,5.52s.12,3.72.12,5.33v40.26Z" transform="translate(-18.41)"/><path class="cls-1" d="M1843.28,1937.23a34.77,34.77,0,0,1-14.11-2.78,31.35,31.35,0,0,1-10.86-7.82,35.47,35.47,0,0,1-7-11.93,44.41,44.41,0,0,1-2.44-15,44.85,44.85,0,0,1,2.37-14.8,35.29,35.29,0,0,1,6.87-11.92,31.45,31.45,0,0,1,10.91-8,35.24,35.24,0,0,1,14.42-2.84,36.52,36.52,0,0,1,11.33,1.64,27.58,27.58,0,0,1,8.72,4.52,25.06,25.06,0,0,1,6.57,7.8,28.46,28.46,0,0,1,3.15,9.89h-11.61a16.85,16.85,0,0,0-3.11-7.23,16.07,16.07,0,0,0-6.19-4.89,21.33,21.33,0,0,0-9-1.77,20.65,20.65,0,0,0-12.3,3.6,22.22,22.22,0,0,0-7.64,9.84,36.62,36.62,0,0,0-2.58,14.11,34.42,34.42,0,0,0,2.8,14.34,22.64,22.64,0,0,0,7.89,9.67,20.59,20.59,0,0,0,11.93,3.49,19.37,19.37,0,0,0,10-2.4,16.73,16.73,0,0,0,6.24-6.37,22,22,0,0,0,2.63-8.73H1874a29.11,29.11,0,0,1-8.67,19.68,24.73,24.73,0,0,1-9.56,5.93A38.46,38.46,0,0,1,1843.28,1937.23Z" transform="translate(-18.41)"/><path class="cls-1" d="M1884.91,1935.8v-72.26H1937v10.1h-40.45v19.87h36.18V1903h-36.18v22.38H1938v10.38Z" transform="translate(-18.41)"/></g></g></svg>