<?xml version="1.0" encoding="utf-8"?>
<!-- Generator: Adobe Illustrator 25.4.1, SVG Export Plug-In . SVG Version: 6.00 Build 0)  -->
<svg version="1.1" id="Logo" xmlns="http://www.w3.org/2000/svg" xmlns:xlink="http://www.w3.org/1999/xlink" x="0px" y="0px"
	 viewBox="0 0 51 64" style="enable-background:new 0 0 51 64;" xml:space="preserve">
<style type="text/css">
	.st0{fill:#87E64B;}
</style>
<g>
	<circle class="st0" cx="25.6" cy="61.1" r="2.9"/>
	<path class="st0" d="M42,41.6l-16.1,1.7c-0.3,0-0.5-0.3-0.2-0.5l15.8-12.3c1-0.8,1.7-2.1,1.4-3.5c-0.3-2.1-2-3.5-4.3-3.3l-17.1,2.5
		c-0.3,0-0.5-0.3-0.2-0.5l17-13C41.5,10.1,41.8,5,38.7,2C36-0.8,31.5-0.7,28.7,2.1L1.3,30c-1,1.1-1.5,2.6-1.2,4.2
		c0.5,2.5,3,4.2,5.5,3.7l14.8-3c0.3-0.1,0.5,0.4,0.2,0.5L4.2,45.9c-2,1.3-3,3.6-2.3,6C2.5,55,5.6,56.7,8.6,56l24.5-6
		c0.3-0.1,0.5,0.2,0.3,0.5l-3.8,4.7c-1,1.3,0.6,3.1,2,2l12.6-10.3C46.4,45,44.9,41.4,42,41.6L42,41.6z"/>
</g>
</svg>
